<?xml version="1.0" encoding="utf-8"?>
<!-- Generator: Adobe Illustrator 22.1.0, SVG Export Plug-In . SVG Version: 6.00 Build 0)  -->
<svg version="1.1" id="Layer_1" xmlns:v="https://vecta.io/nano"
	 xmlns="http://www.w3.org/2000/svg" xmlns:xlink="http://www.w3.org/1999/xlink" x="0px" y="0px" viewBox="0 0 250 84"
	 style="enable-background:new 0 0 250 84;" xml:space="preserve">
<style type="text/css">
	.st0{fill:#83BB3C;}
	.st1{fill:none;stroke:#575757;stroke-width:0.7538;stroke-linejoin:round;stroke-miterlimit:10;stroke-dasharray:4.5228;}
	.st2{fill:#FAD702;}
	.st3{opacity:0.4;}
	.st4{fill:#FFFFFF;}
	.st5{fill:#00A05E;}
	.st6{fill:#7A7A72;}
	.st7{fill:#B3B1A4;}
	.st8{fill:#ABA89C;}
	.st9{fill:#F5D0C3;}
	.st10{fill:#D0CEBF;}
	.st11{clip-path:url(#SVGID_2_);fill:#D0CEBF;}
	.st12{clip-path:url(#SVGID_2_);fill:#BCBAAE;}
	.st13{fill:#453434;}
	.st14{fill:#FBD8CE;}
	.st15{fill:#F8BEAE;}
	.st16{opacity:0.13;fill:#FFFFFF;}
</style>
<g>
	<path class="st0" d="M226.4,83.2h-201c-10.2,0-18.5-8.3-18.5-18.5V19.5c0-10.2,8.3-18.5,18.5-18.5h201c10.2,0,18.5,8.3,18.5,18.5
		v45.2C244.9,74.9,236.6,83.2,226.4,83.2z"/>
	<path class="st1" d="M226.1,82.3H25.7c-10,0-18.1-8.1-18.1-18.1V20c0-10,8.1-18.1,18.1-18.1h200.3c10,0,18.1,8.1,18.1,18.1v44.2
		C244.1,74.1,236,82.3,226.1,82.3z"/>
	<circle class="st2" cx="48.5" cy="30.8" r="25.5"/>
	<g>
		<g class="st3">
			<polygon class="st4" points="73.8,31.6 72.3,34.3 69.3,33.3 70.4,36.2 67.8,38 70.8,38.9 70.5,42 73.1,40.3 75.4,42.4 75.6,39.3 
				78.7,38.9 76.4,36.7 78,34.1 74.9,34.5 			"/>
		</g>
		<g class="st3">
			<polygon class="st4" points="68.9,2 67.4,4.7 64.4,3.7 65.5,6.6 62.9,8.3 65.9,9.3 65.6,12.4 68.2,10.6 70.5,12.8 70.7,9.7 
				73.8,9.2 71.5,7.1 73.1,4.4 70,4.9 			"/>
		</g>
		<g class="st3">
			<polygon class="st4" points="37.8,1.9 36.3,4.6 33.3,3.6 34.4,6.6 31.8,8.3 34.8,9.2 34.5,12.3 37.1,10.6 39.4,12.7 39.6,9.6 
				42.7,9.2 40.5,7 42,4.4 39,4.8 			"/>
		</g>
	</g>
	<g>
		<path class="st5" d="M68.8,67.9c0-0.3,0.1-0.6,0.1-0.9c3.1,0.3,5.4-1.5,6.7-2.8c0-1.3-0.1-2.5-0.4-3.7c-2,2-5.3,3.8-6.3,4.2
			c0-0.4,0-0.8-0.1-1.3c2-0.8,4.9-2.6,6.2-3.7c-0.2-1-0.5-1.9-0.7-2.8c-1.4,1.9-4.9,3.8-5.2,3.8c-0.2,0.1-0.3-0.8,0.1-1
			c0.5-0.2,3.3-1.7,4.4-3.2c0.1-0.2,0.3-0.4,0.3-0.6c-0.4-1.1-0.8-2.2-0.8-2.2s-0.4-1.1-0.5-0.8c-0.8,1-3.4,4.9-3.7,5
			c-0.4,0.1,2.9-5.2,2.8-5.7c-0.1-0.5-3.2-1-3.6-1.1c-0.3-0.1-1.1,4.6-1.5,6.6c-0.2,0.1-0.4,0.2-0.6,0.3c-0.6-1.5-0.2-5.2,0.1-7.1
			c-1.2,0.2-3.6,0.8-3.6,0.8c-0.7,3.5,0.8,6.9,1.2,7.8c-0.4,0.3-0.8,0.6-1.2,0.9c-1.9-2.5-1.8-6.2-1.6-8.2c-1,0.4-2,0.9-2.9,1.6
			c-0.6,4.1,1.9,7.2,2.8,8.2c-0.4,0.4-0.7,0.8-1.1,1.2c-3.3-2.5-3.6-5.8-3.5-7.8c-0.4,0.5-0.7,1-1,1.5c-0.3,0.7-0.6,1.4-0.9,2.1
			c1.3,2.3,4.3,5.4,4.3,5.4l-0.7,1c-1-0.2-3.1-2.6-4.3-4.2c-0.5,1.6-0.7,3.2-0.7,4.7l4.8,1.3c0,0.1-0.1,0.2-0.1,0.3
			c-0.1,0.4-0.2,0.8-0.2,1.2l-4.4-1c0.1,0.8,0.3,1.7,0.7,2.4c1.6,0,3.6-0.2,3.6-0.2s0.1,0.1,0.2,0.4c0,0.1,0,0.2,0.1,0.2
			c0,0.2,0,0.3-0.1,0.5c-0.1,0.4-1.6,0.7-2.8,0.8c1.1,1.6,2.8,2.8,5.3,3.7c0.2,0.1,0.6,0.2,1,0.2c0.3-0.9,0.6-2,0.8-2.7
			c0.1,0,0.2,0,0.3,0c0.1,0.7,0.4,1.9,0.8,2.8c1.5,0,3.2-0.1,5-0.7c0-0.1,0-0.1,0-0.1c-2.9-2-2.6-2.2-2.7-2.5
			c0.3-0.1,0.6-0.2,0.9-0.4c1.6,1.3,2.6,1.8,4.1,2c1.1-0.6,2.1-1.3,2.9-2.3c-1.8-0.2-5.2-1.4-5.2-1.4c0.1-0.2,0.2-0.4,0.3-0.7
			l5.6,1.1c0.5-0.8,0.9-1.7,1.2-2.7c0.2-0.7,0.3-1.4,0.4-2.1C73.1,68.4,70.2,68.2,68.8,67.9z"/>
		<g>
			<path class="st5" d="M23.4,63.8c0-0.3-0.1-0.7-0.1-1c-3.4,0.3-5.9-1.7-7.3-3.1c0-1.4,0.2-2.8,0.4-4.1c2.2,2.1,5.7,4.2,6.8,4.6
				c0-0.5,0-0.9,0.1-1.4c-2.2-0.9-5.4-2.9-6.7-4c0.2-1.1,0.5-2.1,0.8-3.1c1.6,2.1,5.3,4.2,5.7,4.1c0.2,0.1,0.4-0.9-0.1-1.1
				c-0.5-0.2-3.6-1.8-4.9-3.5c-0.2-0.2-0.3-0.4-0.4-0.7c0.4-1.3,0.9-2.4,0.9-2.4s0.4-1.2,0.5-0.8c0.9,1.1,3.7,5.4,4.1,5.4
				c0.4,0.1-3.1-5.7-3-6.2c0.1-0.5,3.5-1.1,3.9-1.2c0.4-0.1,1.2,5.1,1.6,7.3c0.2,0.1,0.4,0.2,0.6,0.3c0.6-1.7,0.2-5.6-0.1-7.8
				c1.3,0.2,3.9,0.8,3.9,0.8c0.8,3.8-0.9,7.6-1.3,8.5c0.4,0.3,0.8,0.6,1.3,1c2.1-2.7,1.9-6.8,1.7-9c1.1,0.5,2.2,1,3.2,1.7
				c0.6,4.5-2,7.9-3.1,9c0.4,0.4,0.8,0.9,1.2,1.4c3.6-2.7,4-6.4,3.8-8.5c0.4,0.5,0.8,1.1,1.1,1.7c0.4,0.7,0.7,1.5,1,2.2
				c-1.4,2.5-4.7,5.9-4.7,5.9l0.8,1.1c1.1-0.2,3.3-2.8,4.7-4.5c0.5,1.8,0.8,3.5,0.8,5.2l-5.2,1.4c0,0.1,0.1,0.2,0.1,0.3
				c0.1,0.5,0.2,0.9,0.2,1.3l4.8-1.1c-0.1,0.9-0.4,1.8-0.7,2.7c-1.7,0-3.9-0.2-3.9-0.2s-0.1,0.2-0.2,0.4c0,0.1,0,0.2-0.1,0.3
				c0,0.2,0,0.4,0.1,0.6c0.2,0.4,1.8,0.7,3.1,0.9c-1.2,1.7-3.1,3.1-5.7,4c-0.3,0.1-0.6,0.2-1.1,0.3c-0.3-1-0.6-2.2-0.9-2.9
				c-0.1,0-0.3,0-0.4,0c-0.1,0.8-0.4,2-0.8,3.1c-1.6,0-3.5-0.2-5.5-0.7c0-0.1,0-0.1,0-0.1c3.1-2.2,2.8-2.4,3-2.8
				c-0.3-0.1-0.7-0.3-1-0.4c-1.7,1.4-2.9,1.9-4.5,2.2c-1.2-0.6-2.3-1.5-3.2-2.5c2-0.2,5.7-1.5,5.7-1.5c-0.1-0.2-0.3-0.5-0.4-0.7
				l-6.1,1.2c-0.5-0.9-1-1.8-1.3-3c-0.2-0.8-0.3-1.5-0.4-2.3C18.7,64.3,21.8,64.1,23.4,63.8z"/>
		</g>
		<g>
			<g>
				<path class="st6" d="M53.7,71.6c0,0.1,0,0.1,0,0.2c0,0.2-0.2,0.4-0.4,0.5c0.5-0.1,1.1-0.3,1.6-0.1c0.4,0.1,0.8,0.5,0.8,1
					c-0.1,1-1.2,0.8-1.8,0.6c0.5,0.2,1.1,0.2,1.5,0.6c0.2,0.2,0.3,0.5,0.3,0.7c-0.2,0.9-1.9,0.5-2.2-0.1c0.2,0.3,0.5,0.5,0.7,0.8
					c0.1,0.3,0.1,0.6-0.1,0.8c-0.3,0.4-0.8,0.2-1.1-0.1c-0.7-0.6-1.5-1.1-2.1-1.7c-0.4-0.4-0.8-0.9-0.9-1.5
					c-0.2-0.6-0.1-1.2,0.2-1.7c0.6-0.8,1.5-0.7,2.3-0.7c0.3,0,0.6,0,0.9,0.2C53.4,71.1,53.6,71.4,53.7,71.6z"/>
				<path class="st7" d="M38.2,70.4c-0.7-0.7-1.1-1.6-1.1-2.6c-0.1-1.3,0.5-2.6,1.5-3.4c0.6-0.5,1.2-0.9,1.9-1.1
					c0.7-0.2,1.4-0.2,2.1-0.2c1.5,0,3.1,0.6,4.3,1.5c0,0,0.1,0.1,0.1,0.1c1,0.8,1.7,1.8,2.4,2.9c0.6,0.9,1,1.9,1.2,2.9
					c0.3,1.1,0.1,2.2-0.1,3.2c0,0.2-0.1,0.4-0.2,0.6c-0.2,0.4-0.9,0.4-1.3,0.4c-1.5-0.1-3-0.5-4.4-0.9c-1.7-0.5-3.5-1-4.9-2.1
					c-0.5-0.3-0.8-0.7-1.2-1.1C38.3,70.6,38.2,70.5,38.2,70.4z"/>
			</g>
			<path class="st7" d="M37.5,60.3c0.3,0.1,0.5,0.2,0.8,0.3c3.1,0.7,6.2,0.5,9.2-0.4c1.5-0.4,3-1,4.4-1.6c1.6-0.7,3-1.7,4.5-2.8
				c0.3-0.2,0.6-0.5,0.8-0.9c0.2-0.5-0.1-1.3-0.2-1.8c-0.2-0.9-0.6-2-1.4-2.4c-0.2-0.1-1.6,0.1-2.3,0.5c-1,0.5-2.1,0.9-3.2,1.1
				c-0.8,0.2-1.8,0-2.6,0c-3.1,0.1-6.5,0.7-8.8,2.9c-0.9,0.8-1.9,2-2.1,3.3c-0.1,0.4,0,0.9,0.2,1.2C36.9,60,37.2,60.2,37.5,60.3z"/>
			<path class="st8" d="M28.3,28.3c0,0-4.7-10.2-14.7-4.2l2.9,2c0,0-2.8-0.3-4.8,1.9l2.5,2.1c0,0-3.3,0.7-2.5,4.5
				c0.8,3.7,4.3,2.7,4.3,2.7l0,2.8l4-0.4L28.3,28.3z"/>
			<path class="st9" d="M26.3,27.9c0,0-2.9-6.4-9.1-2.6l1.8,1.2c0,0-1.7-0.2-3,1.2l1.6,1.3c0,0-2.1,0.5-1.6,2.8
				c0.5,2.3,2.7,1.7,2.7,1.7l0,1.7l2.5-0.3L26.3,27.9z"/>
			<path class="st8" d="M46.7,26.3c0,0,2.4-11,13.5-7.2l-2.4,2.6c0,0,2.7-0.9,5.1,0.8l-2,2.6c0,0,3.4,0,3.4,3.9
				c0,3.8-3.6,3.6-3.6,3.6l0.6,2.7l-4,0.4L46.7,26.3z"/>
			<path class="st9" d="M48.1,25.8c0,0,1.6-7.3,8.9-4.8l-1.6,1.7c0,0,1.8-0.6,3.4,0.5L57.4,25c0,0,2.2,0,2.2,2.5
				c0,2.5-2.4,2.4-2.4,2.4l0.4,1.8l-2.6,0.3L48.1,25.8z"/>
			<path class="st10" d="M31,55.5c0.5-0.3,1.2,0.1,1.8,0.2c0.5,0.1,0.9,0.2,1.4,0.2c1.2,0.2,2.4,0.3,3.5,0.3c1.3,0,2.6,0,3.9-0.1
				c1.2-0.1,2.5-0.4,3.7-0.4c1.5,0,3.1,0.2,4.5,0.8c2.2,0.9,4.3,2.3,5.2,4.6c1.1,2.8,0.7,5.8-0.5,8.4c-0.3,0.6-0.6,1.2-1.1,1.7
				c-2,2.4-5,2.9-7.9,2.9c-3.2,0-6.2-0.8-8.8-2.6c-4.7-3.4-8.2-9.3-6.3-15.1c0.1-0.3,0.2-0.5,0.4-0.7C30.9,55.5,30.9,55.5,31,55.5z"
				/>
			<g>
				<defs>
					<path id="SVGID_1_" d="M60.3,40.1c1.5,8.5-7.2,14.4-18.8,16.3c-11.6,2-21.7-0.7-23.1-9.2C17,38.7,24.3,24.9,35.9,23
						C47.4,21,58.9,31.6,60.3,40.1z"/>
				</defs>
				<clipPath id="SVGID_2_">
					<use xlink:href="#SVGID_1_"  style="overflow:visible;"/>
				</clipPath>
				<path class="st11" d="M60.3,40.1c1.5,8.5-7.2,14.4-18.8,16.3c-11.6,2-21.7-0.7-23.1-9.2C17,38.7,24.3,24.9,35.9,23
					C47.4,21,58.9,31.6,60.3,40.1z"/>
				<path class="st12" d="M47.2,24.3c-0.1,0-0.2-0.1-0.4-0.2c-0.7-0.3-1.4-0.6-2-0.9c-0.3-0.1-3.2-0.9-4.9-1
					c-6.9-0.6-12.4,4.2-12.4,4.2c0,0,1,0.8,1.1,0.9c0.4,0.5,0.8,1,1.3,1.4c2.5,2.8,4.8,5.7,6.3,9.3c0.5,1.2,1.1,2.7,2.3,3
					c1.1,0.3,2.3-0.5,2.6-1.6c0.3-1.3,0.5-2.7,0.7-4c0.1-1.1,0.7-2.3,1.1-3.4c1-2.3,2.4-4.3,3.7-6.4c0.1-0.2,0.3-0.4,0.4-0.6
					C47.2,24.7,47.2,24.3,47.2,24.3z"/>
			</g>
			<g>
				<g>
					<path class="st4" d="M51.9,38.6c0.1,1.9-1.3,3.4-3.2,3.5c-1.9,0.1-3.4-1.3-3.5-3.2c-0.1-1.9,1.3-3.4,3.2-3.5
						C50.3,35.3,51.8,36.7,51.9,38.6z"/>
				</g>
				<g>
					<path class="st13" d="M50.8,38.6c0.1,1.2-0.9,2.3-2.1,2.3c-1.2,0.1-2.3-0.9-2.3-2.1c-0.1-1.2,0.9-2.3,2.1-2.3
						C49.7,36.4,50.7,37.4,50.8,38.6z"/>
				</g>
				<g>
					<path class="st4" d="M50.2,40.1c0,0.5-0.4,1-0.9,1c-0.5,0-1-0.4-1-0.9c0-0.5,0.4-1,0.9-1C49.7,39.2,50.2,39.6,50.2,40.1z"/>
				</g>
				<g>
					<path class="st4" d="M48.4,38c0,0.3-0.2,0.5-0.5,0.5c-0.3,0-0.5-0.2-0.5-0.5c0-0.3,0.2-0.5,0.5-0.5
						C48.2,37.5,48.4,37.8,48.4,38z"/>
				</g>
			</g>
			<ellipse transform="matrix(0.9868 -0.1621 0.1621 0.9868 -6.5055 8.5549)" class="st14" cx="49.2" cy="44.1" rx="3.2" ry="1.6"/>
			<g>
				<g>
					<path class="st4" d="M32.1,41.8c0.1,1.9-1.3,3.4-3.2,3.5c-1.9,0.1-3.4-1.3-3.5-3.2c-0.1-1.9,1.3-3.4,3.2-3.5
						C30.5,38.5,32.1,40,32.1,41.8z"/>
				</g>
				<g>
					<path class="st13" d="M31,41.9c0.1,1.2-0.9,2.3-2.1,2.3c-1.2,0.1-2.3-0.9-2.3-2.1c-0.1-1.2,0.9-2.3,2.1-2.3
						C29.9,39.7,30.9,40.6,31,41.9z"/>
				</g>
				<g>
					<path class="st4" d="M30.4,43.4c0,0.5-0.4,1-0.9,1c-0.5,0-1-0.4-1-0.9c0-0.5,0.4-1,0.9-1C30,42.4,30.4,42.8,30.4,43.4z"/>
				</g>
				<g>
					<path class="st4" d="M28.7,41.3c0,0.3-0.2,0.5-0.5,0.5c-0.3,0-0.5-0.2-0.5-0.5c0-0.3,0.2-0.5,0.5-0.5
						C28.4,40.8,28.6,41,28.7,41.3z"/>
				</g>
			</g>
			<ellipse transform="matrix(0.9868 -0.1621 0.1621 0.9868 -7.2939 5.3921)" class="st14" cx="29.4" cy="47.4" rx="3.2" ry="1.6"/>
			<g>
				<path class="st4" d="M46.2,47.8c0.3,1.8-0.9,3.6-2.7,3.9c-1.8,0.3-3.5-0.9-3.8-2.7c-0.3-1.8,0.9-3.6,2.7-3.9
					C44.1,44.8,45.9,46,46.2,47.8z"/>
				<path class="st4" d="M40.5,48.8c0.3,1.8-0.9,3.6-2.7,3.9C36,53,34.3,51.8,34,49.9c-0.3-1.8,0.9-3.6,2.7-3.9
					C38.4,45.7,40.2,47,40.5,48.8z"/>
				<circle class="st4" cx="40.2" cy="50.9" r="3.8"/>
				<path class="st6" d="M38.1,33.9c-2.9,0.4-3.8,4.5-4.1,9.4c-0.5,6.1,3.2,8,6.1,7.6c2.9-0.4,5.8-2.5,4.1-8.7
					C42.8,37.1,41,33.5,38.1,33.9z"/>
				<path class="st13" d="M39.5,44.8c-2.9,0.4-5.2,2.9-4.3,4.1c1.2,1.7,3.2,2.2,4.9,2c1.8-0.2,3.6-1.1,4.3-3.2
					C44.8,46.3,42.4,44.4,39.5,44.8z"/>
				<path class="st15" d="M36.3,48.1c0.7-1.2,3.4,0.7,3.8,1c0.2-0.3,2.2-3.1,3.3-2.1c1.1,1-0.9,2.7-2.6,3.2c0,0,0.2,0.8-0.3,0.9
					c-0.5,0.1-0.6-0.7-0.6-0.7C38,50.3,35.6,49.4,36.3,48.1z"/>
			</g>
			<g>
				<path class="st6" d="M45.2,73.2c0,0.1,0,0.1,0,0.2c0,0.2-0.2,0.4-0.4,0.5c0.5-0.1,1.1-0.3,1.6-0.1c0.4,0.1,0.8,0.5,0.8,1
					c-0.1,1-1.2,0.8-1.8,0.6c0.5,0.2,1.1,0.2,1.5,0.6c0.2,0.2,0.3,0.5,0.3,0.7c-0.2,0.9-1.9,0.5-2.2-0.1c0.2,0.3,0.5,0.5,0.7,0.8
					c0.1,0.3,0.1,0.6-0.1,0.8c-0.3,0.4-0.8,0.2-1.1-0.1c-0.7-0.6-1.5-1.1-2.1-1.7c-0.4-0.4-0.8-0.9-0.9-1.5
					c-0.2-0.6-0.1-1.2,0.2-1.7c0.6-0.8,1.5-0.7,2.3-0.7c0.3,0,0.6,0,0.9,0.2C45,72.7,45.1,72.9,45.2,73.2z"/>
				<path class="st7" d="M29.7,72c-0.7-0.7-1.1-1.6-1.1-2.6c-0.1-1.3,0.5-2.6,1.5-3.4c0.6-0.5,1.2-0.9,1.9-1.1
					c0.7-0.2,1.4-0.2,2.1-0.2c1.5,0,3.1,0.6,4.3,1.5c0,0,0.1,0.1,0.1,0.1c1,0.8,1.7,1.8,2.4,2.9c0.6,0.9,1,1.9,1.2,2.9
					c0.3,1.1,0.1,2.2-0.1,3.2c0,0.2-0.1,0.4-0.2,0.6c-0.2,0.4-0.9,0.4-1.3,0.4c-1.5-0.1-3-0.5-4.4-0.9c-1.7-0.5-3.5-1-4.9-2.1
					c-0.5-0.3-0.8-0.7-1.2-1.1C29.9,72.2,29.8,72.1,29.7,72z"/>
			</g>
			<path class="st6" d="M55.5,50.7c0.2-0.7,0.5-1.3,1-1.8c0.2-0.2,0.5-0.4,0.8-0.4c0.4,0,0.7,0.4,0.8,0.8c0.1,0.4,0.1,1-0.1,1.4
				c0.3-0.5,0.8-1,1.3-0.9c0.5,0.1,0.8,0.5,0.8,0.9c0,0.4-0.1,0.7-0.3,1c-0.2,0.3-0.5,0.4-0.7,0.7c0.2,0.1,0.4,0,0.6,0
				c0.2,0,0.5,0.2,0.6,0.3c0.3,0.3,0.3,0.8,0.1,1.2c-0.2,0.4-0.8,0.6-1.3,0.5c0.3,0.1,0.6,0.3,0.7,0.6c0.2,0.3,0.2,0.7,0,0.9
				c-0.2,0.2-0.4,0.3-0.7,0.3c-0.3,0-0.5-0.1-0.8-0.2c-1.3-0.5-2.4-2-2.8-3.3C55.4,52.1,55.4,51.3,55.5,50.7z"/>
		</g>
		<path class="st0" d="M56.1,64.7l0.2-1l6.7-2.1c0.3-1.7,0.5-3.4,0.7-5l-6.3,2l0.4-1.2l6.1-1.9c0.3-2.1,0.6-4.1,0.8-5.9l-5,2.1
			l0.2-1.2l4.9-2.4c0.2-2,0.4-3.6,0.4-4.3c0-0.3,0-0.6,0-0.9l-5.1,3.9l0.3-1.5l4.7-4.6c-0.3-4-1.1-8.5-1.4-7.8
			c-0.2,0.7-2.2,0.8-5.3,6.3l1.3,5l-0.6,1.6l-1.7-4.8c-0.7,1.3-1.4,2.8-2.1,4.6l3.1,4.1L58,50.8L54.7,47c-0.2,0.5-0.4,1-0.6,1.6
			c-0.5,1.4-1,2.7-1.3,4l3.7,3.8l-0.4,1.4l-3.7-3.7c-0.5,2.1-0.9,4.1-1.1,5.9l2.7,2.8l-0.2,1.4l-2.6-2c-0.5,6.9,1.1,11,1.1,11
			c-0.5,2.7,6.4,1.9,8.1,0.6c0.7-0.5,1.6-5.1,2.5-10.6L56.1,64.7z"/>
		<g>
			<path class="st7" d="M32.1,58.9c0.1,0.3,0.2,0.5,0.4,0.8c1.7,2.7,4,4.7,6.8,6.2c1.4,0.7,2.8,1.4,4.2,1.9c1.7,0.6,3.4,0.9,5.1,1.2
				c0.4,0.1,0.8,0.1,1.2-0.1c0.5-0.3,0.9-0.9,1.1-1.4c0.4-0.8,1-1.8,0.7-2.7c-0.1-0.2-1.2-1-2-1.2c-1.1-0.3-2.1-0.8-3.1-1.4
				c-0.7-0.5-1.3-1.2-1.9-1.8c-2.3-2.1-5-4.1-8.3-4.2c-1.2,0-2.8,0.1-3.8,0.8c-0.3,0.2-0.6,0.6-0.7,1C32,58.2,32,58.6,32.1,58.9z"/>
			<path class="st6" d="M51.7,64.8c0.6-0.4,1.3-0.6,2-0.6c0.3,0,0.7,0,0.9,0.3c0.3,0.3,0.2,0.8,0,1.1c-0.2,0.3-0.7,0.8-1.1,0.9
				c0.5-0.1,1.2-0.1,1.6,0.3c0.3,0.4,0.2,0.9-0.1,1.2c-0.2,0.3-0.6,0.4-0.9,0.5c-0.3,0-0.7-0.1-1,0c0.1,0.2,0.3,0.3,0.4,0.5
				c0.1,0.2,0.2,0.4,0.2,0.7c0,0.4-0.3,0.8-0.8,0.9c-0.5,0.1-1-0.2-1.3-0.6c0.1,0.3,0.2,0.6,0.1,0.9c-0.1,0.3-0.4,0.6-0.7,0.6
				c-0.3,0-0.5-0.1-0.7-0.3c-0.2-0.2-0.3-0.4-0.4-0.7c-0.6-1.3-0.3-3.1,0.4-4.3C50.6,65.6,51.1,65.1,51.7,64.8z"/>
		</g>
	</g>
	<path class="st16" d="M234.4,0.9H213v82.3h21.4c5.7,0,10.4-4.7,10.4-10.4V11.4C244.9,5.6,240.2,0.9,234.4,0.9z"/>
</g>
</svg>
