<svg xmlns="http://www.w3.org/2000/svg" xmlns:xlink="http://www.w3.org/1999/xlink" viewBox="0 0 202 134">
    <defs>
        <clipPath id="a">
            <path d="M84.74,62.25c-1.64,9.59,8.1,16.18,21.13,18.4s24.39-.78,26-10.37S125.31,45.18,112.28,43,86.37,52.66,84.74,62.25Z" fill="none"/>
        </clipPath>
    </defs>
    <g>
        <rect x="57.31" y="9.05" width="90.79" height="117.3" rx="18.52" ry="18.52" fill="#84bd3d"/>
        <rect x="58.37" y="10.42" width="88.67" height="114.55" rx="18.09" ry="18.09" fill="none" stroke="#575757" stroke-linejoin="round" stroke-width="0.75" stroke-dasharray="4.52"/>
        <circle cx="98.04" cy="51.84" r="28.71" fill="#fcd807"/>
        <g>
            <g opacity="0.4">
                <polygon points="69.54 52.69 71.31 55.72 74.65 54.65 73.38 57.92 76.3 59.86 72.96 60.91 73.25 64.4 70.35 62.44 67.81 64.85 67.53 61.36 64.06 60.88 66.61 58.48 64.83 55.46 68.3 55.97 69.54 52.69" fill="#fff"/>
            </g>
            <g opacity="0.4">
                <polygon points="75.04 19.32 76.81 22.35 80.14 21.28 78.88 24.55 81.8 26.49 78.45 27.54 78.75 31.04 75.85 29.08 73.31 31.49 73.03 28 69.56 27.51 72.11 25.11 70.33 22.1 73.79 22.6 75.04 19.32" fill="#fff"/>
            </g>
            <g opacity="0.4">
                <polygon points="110.04 19.27 111.81 22.29 115.15 21.22 113.88 24.49 116.8 26.43 113.46 27.48 113.76 30.98 110.85 29.02 108.31 31.43 108.03 27.93 104.56 27.45 107.11 25.05 105.33 22.04 108.8 22.54 110.04 19.27" fill="#fff"/>
            </g>
        </g>
        <g>
            <path d="M75.21,93.6c0-.34-.09-.68-.12-1a9.25,9.25,0,0,1-7.5-3.19,24.25,24.25,0,0,1,.4-4.22,28.07,28.07,0,0,0,7,4.73c0-.47,0-.94.07-1.41a33.83,33.83,0,0,1-6.95-4.11A30.48,30.48,0,0,1,69,81.19c1.6,2.18,5.48,4.33,5.9,4.24.17.12.39-1-.13-1.14a16,16,0,0,1-5-3.57,2.26,2.26,0,0,1-.38-.67c.46-1.29.91-2.43.91-2.43s.45-1.27.57-.85c.91,1.1,3.86,5.52,4.2,5.61S71.81,76.51,71.9,76s3.58-1.11,4-1.21S77.22,80,77.6,82.28c.2.09.41.21.65.34.65-1.71.22-5.82-.08-8,1.3.19,4.07.88,4.07.88a15,15,0,0,1-1.38,8.8c.43.32.87.66,1.31,1,2.12-2.77,2-7,1.76-9.25a14.74,14.74,0,0,1,3.31,1.8,11.81,11.81,0,0,1-3.14,9.26,18.14,18.14,0,0,1,1.21,1.4,9.9,9.9,0,0,0,3.94-8.76,9.19,9.19,0,0,1,1.11,1.74c.38.76.72,1.54,1,2.32a40.08,40.08,0,0,1-4.8,6L87.4,91c1.13-.23,3.44-2.93,4.83-4.68a19.11,19.11,0,0,1,.8,5.34l-5.36,1.42c0,.09,0,.19.08.29A10.23,10.23,0,0,1,88,94.67l4.93-1.15a10.77,10.77,0,0,1-.75,2.75c-1.8,0-4-.26-4-.26a1.65,1.65,0,0,0-.22.44,2.14,2.14,0,0,1-.06.27,1.41,1.41,0,0,0,.06.6c.16.46,1.84.77,3.15.89a12,12,0,0,1-5.93,4.15,6.07,6.07,0,0,1-1.13.27c-.28-1-.65-2.24-.89-3h-.4a14.8,14.8,0,0,1-.85,3.19,19.31,19.31,0,0,1-5.64-.76l0-.1c3.24-2.28,2.89-2.53,3-2.84a7.64,7.64,0,0,1-1-.42A9.08,9.08,0,0,1,73.57,101a10.63,10.63,0,0,1-3.28-2.61,38.66,38.66,0,0,0,5.9-1.54,5.91,5.91,0,0,1-.36-.76l-6.34,1.21a10.92,10.92,0,0,1-1.32-3.06,16.87,16.87,0,0,1-.45-2.4A8.64,8.64,0,0,0,75.21,93.6Z" fill="#00a25f"/>
            <path d="M126.34,88.9c0-.37.09-.75.13-1.14,3.82.37,6.67-1.87,8.2-3.49a27.82,27.82,0,0,0-.44-4.61,30.88,30.88,0,0,1-7.69,5.17c0-.52,0-1-.08-1.54a36.92,36.92,0,0,0,7.6-4.49c-.26-1.22-.57-2.38-.91-3.46-1.75,2.38-6,4.73-6.45,4.63-.18.13-.42-1,.15-1.24a17.84,17.84,0,0,0,5.47-3.9,2.57,2.57,0,0,0,.41-.74c-.5-1.41-1-2.65-1-2.65s-.49-1.39-.61-.93c-1,1.2-4.22,6-4.6,6.13s3.53-6.42,3.43-7-3.9-1.21-4.41-1.32-1.4,5.69-1.81,8.18l-.71.37c-.71-1.87-.24-6.36.09-8.73-1.42.2-4.44,1-4.44,1-.87,4.3,1,8.55,1.5,9.62-.47.34-1,.72-1.43,1.12-2.32-3-2.19-7.66-1.92-10.1a16.23,16.23,0,0,0-3.62,2,12.85,12.85,0,0,0,3.43,10.11q-.69.73-1.32,1.53A10.77,10.77,0,0,1,111,73.8a10.1,10.1,0,0,0-1.22,1.9c-.41.83-.78,1.69-1.12,2.53a44,44,0,0,0,5.24,6.61L113,86.05c-1.23-.25-3.75-3.21-5.26-5.12a20.48,20.48,0,0,0-.88,5.83l5.86,1.55c0,.11-.07.21-.09.32a9.19,9.19,0,0,0-.24,1.44L107,88.8a11.37,11.37,0,0,0,.82,3c2,0,4.39-.28,4.39-.28a1.63,1.63,0,0,1,.25.47l.06.31a1.38,1.38,0,0,1-.07.65c-.17.5-2,.84-3.43,1a13.19,13.19,0,0,0,6.47,4.54,7.27,7.27,0,0,0,1.24.28c.31-1.13.71-2.44,1-3.31l.42,0a16.31,16.31,0,0,0,.94,3.48,21,21,0,0,0,6.16-.82l0-.12c-3.54-2.49-3.15-2.76-3.32-3.1a8.44,8.44,0,0,0,1.1-.46,10,10,0,0,0,5.06,2.5,11.93,11.93,0,0,0,3.58-2.86,42.44,42.44,0,0,1-6.44-1.68,9.12,9.12,0,0,0,.4-.83l6.92,1.32A12,12,0,0,0,134,89.55a20.1,20.1,0,0,0,.49-2.62A9.47,9.47,0,0,1,126.34,88.9Z" fill="#00a25f"/>
            <g>
                <g>
                    <path d="M92.24,97.72a1.15,1.15,0,0,0,0,.19.62.62,0,0,0,.47.54,3.22,3.22,0,0,0-1.79-.14,1.2,1.2,0,0,0-.9,1.12c.07,1.07,1.38.91,2,.63a5,5,0,0,0-1.68.64.9.9,0,0,0-.32.82c.19,1,2.12.57,2.49-.08-.2.35-.6.51-.74,1a.94.94,0,0,0,.14.9c.36.42.91.19,1.25-.13.73-.72,1.64-1.19,2.37-1.91a3.85,3.85,0,0,0,1.07-1.68,2.33,2.33,0,0,0-.26-1.93c-.62-.91-1.65-.74-2.61-.75a2,2,0,0,0-1,.18A1,1,0,0,0,92.24,97.72Z" fill="#7a7a72"/>
                    <path d="M109.69,96.36A4.73,4.73,0,0,0,111,93.45a4.83,4.83,0,0,0-1.7-3.88,5.59,5.59,0,0,0-2.16-1.19,7.62,7.62,0,0,0-2.33-.21,8.23,8.23,0,0,0-4.84,1.69l-.13.1a13.49,13.49,0,0,0-4.1,6.54,8.18,8.18,0,0,0,.09,3.65,2.15,2.15,0,0,0,.24.7,1.63,1.63,0,0,0,1.44.45,25.64,25.64,0,0,0,5-1.06A18,18,0,0,0,108,97.91a16.4,16.4,0,0,0,1.39-1.24A3.11,3.11,0,0,0,109.69,96.36Z" fill="#b5b2a6"/>
                </g>
                <path d="M110.4,85.05a6.29,6.29,0,0,1-.93.3,19.77,19.77,0,0,1-10.35-.48,39.09,39.09,0,0,1-4.91-1.82,29.09,29.09,0,0,1-5-3.12,2.2,2.2,0,0,1-.87-1,3.69,3.69,0,0,1,.24-2c.27-.95.63-2.24,1.58-2.69a5.4,5.4,0,0,1,2.54.55A14.78,14.78,0,0,0,96.24,76a16.94,16.94,0,0,0,2.94.05c3.52.12,7.26.74,9.93,3.24a7.52,7.52,0,0,1,2.39,3.66,1.89,1.89,0,0,1-.2,1.36A2,2,0,0,1,110.4,85.05Z" fill="#b5b2a6"/>
                <path d="M120.77,48.93s5.28-11.53,16.57-4.72L134,46.44a7.16,7.16,0,0,1,5.44,2.1l-2.85,2.39a3.94,3.94,0,0,1,2.82,5A3.72,3.72,0,0,1,134.64,59l0,3.12-4.5-.5Z" fill="#acaa9d"/>
                <path d="M123,48.58s3.27-7.15,10.28-2.93L131.22,47a4.45,4.45,0,0,1,3.37,1.31l-1.77,1.47a2.45,2.45,0,0,1,1.75,3.13,2.31,2.31,0,0,1-3,1.9l0,1.93-2.79-.31Z" fill="#f6d1c4"/>
                <path d="M100.06,46.72s-2.73-12.38-15.21-8.1l2.76,2.87a7.15,7.15,0,0,0-5.76.91l2.29,2.93a4,4,0,0,0-3.83,4.33,3.74,3.74,0,0,0,4.06,4l-.69,3,4.5.47Z" fill="#acaa9d"/>
                <path d="M98.5,46.17s-1.8-8.18-10-5.36l1.82,1.9a4.69,4.69,0,0,0-3.8.6L88,45.25a2.6,2.6,0,0,0-2.52,2.86,2.46,2.46,0,0,0,2.68,2.64l-.46,2,3,.31Z" fill="#f6d1c4"/>
                <path d="M117.81,79.56c-.57-.36-1.4.14-2,.26s-1.06.19-1.6.27a37.91,37.91,0,0,1-4,.36,36.07,36.07,0,0,1-4.41-.09c-1.4-.12-2.8-.46-4.2-.48a13.1,13.1,0,0,0-5.06.9c-2.51,1-4.83,2.57-5.89,5.13a11.6,11.6,0,0,0,.6,9.45,9,9,0,0,0,1.2,1.9c2.24,2.68,5.6,3.24,8.93,3.21a16.78,16.78,0,0,0,9.87-3c5.32-3.78,9.19-10.41,7.08-17a1.94,1.94,0,0,0-.43-.83Z" fill="#d1cfc0"/>
                <g clip-path="url(#a)">
                    <path d="M84.74,62.25c-1.64,9.59,8.1,16.18,21.13,18.4s24.39-.78,26-10.37S125.31,45.18,112.28,43,86.37,52.66,84.74,62.25Z" fill="#d1cfc0"/>
                    <path d="M99.48,44.45a4,4,0,0,1,.4-.19c.78-.35,1.53-.65,2.3-1a34.32,34.32,0,0,1,5.56-1.15c7.83-.67,14,4.7,14,4.7a10.72,10.72,0,0,0-1.25,1.06l-1.42,1.61c-2.82,3.2-5.44,6.36-7,10.42-.55,1.38-1.21,3-2.62,3.35a2.49,2.49,0,0,1-2.93-1.84,40.51,40.51,0,0,1-.79-4.51,13.74,13.74,0,0,0-1.25-3.81,48.74,48.74,0,0,0-4.2-7.19c-.15-.23-.31-.46-.46-.7A2,2,0,0,1,99.48,44.45Z" fill="#bebcaf"/>
                </g>
                <g>
                    <path d="M94.2,60.53a3.79,3.79,0,1,0,4-3.61A3.79,3.79,0,0,0,94.2,60.53Z" fill="#fff"/>
                    <path d="M95.49,60.59a2.5,2.5,0,1,0,2.62-2.38A2.51,2.51,0,0,0,95.49,60.59Z" fill="#453434"/>
                    <path d="M96.13,62.28a1.07,1.07,0,0,0,1,1.11,1.06,1.06,0,1,0-1-1.11Z" fill="#fff"/>
                    <path d="M98.13,59.92a.53.53,0,0,0,.51.57.55.55,0,0,0,.57-.52.54.54,0,1,0-1.08,0Z" fill="#fff"/>
                </g>
                <ellipse cx="97.3" cy="66.81" rx="1.75" ry="3.65" transform="translate(15.61 151.99) rotate(-80.67)" fill="#fbdace"/>
                <g>
                    <path d="M116.46,64.19a3.79,3.79,0,1,0,4-3.61A3.79,3.79,0,0,0,116.46,64.19Z" fill="#fff"/>
                    <path d="M117.75,64.25a2.5,2.5,0,1,0,2.62-2.38A2.51,2.51,0,0,0,117.75,64.25Z" fill="#453434"/>
                    <path d="M118.4,65.93a1.06,1.06,0,0,0,1,1.12,1.08,1.08,0,0,0,1.12-1,1.06,1.06,0,0,0-1-1.11A1,1,0,0,0,118.4,65.93Z" fill="#fff"/>
                    <path d="M120.39,63.58a.54.54,0,0,0,.51.57.55.55,0,0,0,.57-.52.53.53,0,0,0-.51-.57A.55.55,0,0,0,120.39,63.58Z" fill="#fff"/>
                </g>
                <ellipse cx="119.56" cy="70.46" rx="1.75" ry="3.65" transform="translate(30.65 177.02) rotate(-80.67)" fill="#fbdace"/>
                <g>
                    <path d="M100.66,71A3.72,3.72,0,1,0,105,67.9,3.76,3.76,0,0,0,100.66,71Z" fill="#fff"/>
                    <path d="M107.07,72A3.72,3.72,0,1,0,111.39,69,3.75,3.75,0,0,0,107.07,72Z" fill="#fff"/>
                    <circle cx="107.43" cy="74.37" r="4.31" fill="#fff"/>
                    <path d="M109.76,55.3c3.27.45,4.25,5.05,4.66,10.56.52,6.87-3.6,9-6.87,8.5s-6.52-2.78-4.63-9.76C104.45,58.92,106.49,54.85,109.76,55.3Z" fill="#7a7a72"/>
                    <path d="M108.19,67.52c3.27.45,5.85,3.25,4.84,4.62a5.72,5.72,0,0,1-5.48,2.22,5.5,5.5,0,0,1-4.84-3.65C102.23,69.24,104.92,67.07,108.19,67.52Z" fill="#453434"/>
                    <path d="M111.79,71.24c-.79-1.4-3.85.8-4.23,1.08-.27-.39-2.47-3.45-3.66-2.37s1,3,2.95,3.62c0,0-.28.9.34,1s.65-.84.65-.84C109.89,73.77,112.63,72.73,111.79,71.24Z" fill="#f8beae"/>
                </g>
                <g>
                    <path d="M101.78,99.5a.59.59,0,0,0,0,.19.64.64,0,0,0,.47.55,3.27,3.27,0,0,0-1.8-.15,1.2,1.2,0,0,0-.89,1.12c.06,1.08,1.38.91,2,.64a4.67,4.67,0,0,0-1.68.63,1,1,0,0,0-.33.83c.2,1,2.12.56,2.5-.09-.2.35-.6.51-.74,1a1,1,0,0,0,.13.9c.36.43.92.19,1.25-.13.73-.71,1.65-1.19,2.38-1.91a3.77,3.77,0,0,0,1.06-1.68,2.34,2.34,0,0,0-.26-1.93c-.62-.91-1.65-.74-2.6-.75a2.08,2.08,0,0,0-1,.18A1,1,0,0,0,101.78,99.5Z" fill="#7a7a72"/>
                    <path d="M119.23,98.15a4.75,4.75,0,0,0,1.28-2.92,4.86,4.86,0,0,0-1.7-3.88,5.8,5.8,0,0,0-2.16-1.19,7.67,7.67,0,0,0-2.33-.2,8.2,8.2,0,0,0-4.85,1.69l-.12.09a13.7,13.7,0,0,0-4.11,6.55,8.34,8.34,0,0,0,.1,3.65,1.89,1.89,0,0,0,.24.69,1.61,1.61,0,0,0,1.43.45,26.32,26.32,0,0,0,5-1,18.1,18.1,0,0,0,5.54-2.34,18.21,18.21,0,0,0,1.39-1.23C119,98.36,119.13,98.26,119.23,98.15Z" fill="#b5b2a6"/>
                </g>
                <path d="M90.15,74.17a4.23,4.23,0,0,0-1.1-2.06,1.35,1.35,0,0,0-.92-.48,1.07,1.07,0,0,0-.9.88A2.67,2.67,0,0,0,87.39,74a1.66,1.66,0,0,0-1.51-1,1.11,1.11,0,0,0-.92,1,1.69,1.69,0,0,0,.36,1.12c.22.29.6.46.79.75-.21.07-.47,0-.7,0a1.23,1.23,0,0,0-.69.39,1.22,1.22,0,0,0-.14,1.35,1.44,1.44,0,0,0,1.49.6,1.45,1.45,0,0,0-.81.63,1,1,0,0,0,0,1,1.08,1.08,0,0,0,.79.39A2.07,2.07,0,0,0,87,80.2a5.93,5.93,0,0,0,3.12-3.74A4.67,4.67,0,0,0,90.15,74.17Z" fill="#7a7a72"/>
            </g>
            <path d="M89.51,89.91l-.27-1.18L81.7,86.41c-.3-1.87-.58-3.8-.84-5.69L88,82.93l-.45-1.36-6.85-2.19c-.33-2.38-.62-4.67-.85-6.67l5.61,2.42-.27-1.36L79.63,71c-.26-2.27-.42-4-.46-4.89,0-.33,0-.67,0-1l5.73,4.39-.37-1.63-5.26-5.13c.31-4.45,1.26-9.6,1.55-8.74s2.46.9,6,7.06l-1.48,5.63.73,1.82L88,63.14c.75,1.47,1.55,3.2,2.4,5.24L86.88,73l.46,1.36L91,70c.22.56.44,1.14.67,1.74q.87,2.34,1.5,4.51l-4.13,4.29.45,1.54L93.65,78a52.06,52.06,0,0,1,1.24,6.61l-3,3.15.27,1.54,3-2.28c.51,7.81-1.25,12.34-1.25,12.34.54,3.09-7.26,2.18-9.07.73C84,99.47,83,94.31,82,88.15Z" fill="#84bd3d"/>
            <g>
                <path d="M116.47,83.45a5.1,5.1,0,0,1-.45.87,19.66,19.66,0,0,1-7.68,7,37.79,37.79,0,0,1-4.76,2.17,28.54,28.54,0,0,1-5.78,1.34,2.3,2.3,0,0,1-1.35-.11,3.78,3.78,0,0,1-1.27-1.62c-.47-.87-1.13-2-.78-3a5.68,5.68,0,0,1,2.2-1.4A14.06,14.06,0,0,0,100,87a17.64,17.64,0,0,0,2.12-2c2.59-2.4,5.68-4.6,9.33-4.71a7.56,7.56,0,0,1,4.28.91,1.94,1.94,0,0,1,.82,1.11A2,2,0,0,1,116.47,83.45Z" fill="#b5b2a6"/>
                <path d="M94.44,90a4.19,4.19,0,0,0-2.23-.69,1.28,1.28,0,0,0-1,.31,1,1,0,0,0,0,1.25,2.67,2.67,0,0,0,1.2,1,1.67,1.67,0,0,0-1.76.38,1.08,1.08,0,0,0,.06,1.36,1.73,1.73,0,0,0,1,.54c.36,0,.75-.09,1.09,0-.1.2-.36.32-.49.51a1.3,1.3,0,0,0-.2.76A1.21,1.21,0,0,0,93,96.46a1.42,1.42,0,0,0,1.47-.64,1.51,1.51,0,0,0-.12,1,1,1,0,0,0,.77.72,1,1,0,0,0,.83-.28,2,2,0,0,0,.49-.75A5.9,5.9,0,0,0,96,91.68,4.63,4.63,0,0,0,94.44,90Z" fill="#7a7a72"/>
            </g>
        </g>
        <path d="M133.21,9.05h-30.5v117.3h30.5a14.94,14.94,0,0,0,14.89-14.9V24A14.94,14.94,0,0,0,133.21,9.05Z" fill="#fff" opacity="0.13"/>
    </g>
</svg>
