<svg xmlns="http://www.w3.org/2000/svg" xmlns:xlink="http://www.w3.org/1999/xlink" viewBox="0 0 202 134">
    <defs>
        <clipPath id="a">
            <path d="M118.92,62.25c1.63,9.59-8.11,16.18-21.13,18.4s-24.4-.78-26-10.37S78.35,45.18,91.37,43,117.28,52.66,118.92,62.25Z" fill="none"/>
        </clipPath>
    </defs>
    <title>pan-bg2</title>
    <g>
        <rect x="57.31" y="9.05" width="90.79" height="117.3" rx="18.52" ry="18.52" fill="#84bd3d"/>
        <rect x="58.37" y="10.42" width="88.67" height="114.55" rx="18.09" ry="18.09" fill="none" stroke="#575757" stroke-linejoin="round" stroke-width="0.75" stroke-dasharray="4.52"/>
        <circle cx="105.61" cy="51.84" r="28.71" fill="#fcd807"/>
        <g>
            <g opacity="0.4">
                <polygon points="134.11 52.69 132.34 55.72 129 54.65 130.27 57.92 127.35 59.86 130.69 60.91 130.4 64.4 133.3 62.44 135.84 64.85 136.13 61.36 139.59 60.88 137.04 58.48 138.82 55.46 135.36 55.97 134.11 52.69" fill="#fff"/>
            </g>
            <g opacity="0.4">
                <polygon points="128.61 19.32 126.84 22.35 123.51 21.28 124.77 24.55 121.85 26.49 125.19 27.54 124.9 31.04 127.8 29.08 130.34 31.49 130.63 28 134.1 27.51 131.54 25.11 133.32 22.1 129.86 22.6 128.61 19.32" fill="#fff"/>
            </g>
            <g opacity="0.4">
                <polygon points="93.61 19.27 91.84 22.29 88.5 21.22 89.77 24.49 86.85 26.43 90.19 27.48 89.89 30.98 92.8 29.02 95.34 31.43 95.62 27.93 99.09 27.45 96.54 25.05 98.32 22.04 94.85 22.54 93.61 19.27" fill="#fff"/>
            </g>
        </g>
        <g>
            <path d="M128.44,93.6c.05-.34.09-.68.12-1a9.24,9.24,0,0,0,7.5-3.19,23.32,23.32,0,0,0-.4-4.22,27.89,27.89,0,0,1-7,4.73c0-.47,0-.94-.07-1.41a33.83,33.83,0,0,0,6.95-4.11,30.48,30.48,0,0,0-.83-3.17c-1.6,2.18-5.48,4.33-5.9,4.24-.17.12-.39-1,.14-1.14a16.11,16.11,0,0,0,5-3.57,2.26,2.26,0,0,0,.38-.67c-.46-1.29-.91-2.43-.91-2.43s-.45-1.27-.57-.85c-.91,1.1-3.85,5.52-4.2,5.61s3.23-5.87,3.14-6.38-3.57-1.11-4-1.21-1.28,5.21-1.65,7.49c-.2.09-.42.21-.66.34-.65-1.71-.22-5.82.08-8-1.3.19-4.06.88-4.06.88a15,15,0,0,0,1.37,8.8c-.43.32-.87.66-1.31,1-2.12-2.77-2-7-1.75-9.25a14.59,14.59,0,0,0-3.32,1.8,11.81,11.81,0,0,0,3.14,9.26,18,18,0,0,0-1.2,1.4,9.87,9.87,0,0,1-3.94-8.76,9.24,9.24,0,0,0-1.12,1.74c-.38.76-.72,1.54-1,2.32a40.08,40.08,0,0,0,4.8,6l-.81,1.1c-1.13-.23-3.44-2.93-4.82-4.68a18.77,18.77,0,0,0-.81,5.34L116,93.07c0,.09,0,.19-.08.29a10.23,10.23,0,0,0-.22,1.31l-4.93-1.15a10.77,10.77,0,0,0,.75,2.75c1.8,0,4-.26,4-.26a1.65,1.65,0,0,1,.22.44l.06.27a1.41,1.41,0,0,1-.06.6c-.16.46-1.84.77-3.15.89a12,12,0,0,0,5.93,4.15,6.07,6.07,0,0,0,1.13.27c.28-1,.65-2.24.89-3h.4a14.8,14.8,0,0,0,.85,3.19,19.31,19.31,0,0,0,5.64-.76l0-.1c-3.24-2.28-2.89-2.53-3-2.84a7.64,7.64,0,0,0,1-.42,9.12,9.12,0,0,0,4.63,2.28,10.63,10.63,0,0,0,3.28-2.61,38.66,38.66,0,0,1-5.9-1.54,7.66,7.66,0,0,0,.37-.76l6.33,1.21a10.92,10.92,0,0,0,1.32-3.06,16.87,16.87,0,0,0,.45-2.4A8.64,8.64,0,0,1,128.44,93.6Z" fill="#00a25f"/>
            <path d="M77.31,88.9c0-.37-.09-.75-.13-1.14-3.82.37-6.67-1.87-8.2-3.49a26.78,26.78,0,0,1,.45-4.61,30.86,30.86,0,0,0,7.68,5.17c0-.52,0-1,.08-1.54A36.83,36.83,0,0,1,69.6,78.8a32.25,32.25,0,0,1,.91-3.46c1.74,2.38,6,4.73,6.44,4.63.18.13.42-1-.15-1.24a17.71,17.71,0,0,1-5.46-3.9,2.39,2.39,0,0,1-.42-.74c.5-1.41,1-2.65,1-2.65s.49-1.39.62-.93c1,1.2,4.21,6,4.59,6.13s-3.53-6.42-3.43-7,3.9-1.21,4.41-1.32,1.4,5.69,1.81,8.18l.71.37c.71-1.87.24-6.36-.09-8.73,1.42.2,4.44,1,4.44,1,.87,4.3-1,8.55-1.5,9.62.47.34,1,.72,1.43,1.12,2.32-3,2.19-7.66,1.92-10.1a16.23,16.23,0,0,1,3.62,2A12.85,12.85,0,0,1,87,81.83q.69.73,1.32,1.53a10.77,10.77,0,0,0,4.3-9.56,10.1,10.1,0,0,1,1.22,1.9c.41.83.78,1.69,1.12,2.53a44,44,0,0,1-5.24,6.61l.89,1.21c1.23-.25,3.75-3.21,5.27-5.12a20.84,20.84,0,0,1,.88,5.83l-5.86,1.55c0,.11.06.21.08.32a10.65,10.65,0,0,1,.25,1.44l5.38-1.27a11.37,11.37,0,0,1-.82,3c-2,0-4.39-.28-4.39-.28a1.63,1.63,0,0,0-.25.47l-.06.31a1.52,1.52,0,0,0,.07.65c.17.5,2,.84,3.43,1a13.19,13.19,0,0,1-6.47,4.54,7.27,7.27,0,0,1-1.24.28c-.31-1.13-.71-2.44-1-3.31l-.43,0a16.31,16.31,0,0,1-.94,3.48,20.87,20.87,0,0,1-6.15-.82.67.67,0,0,1,0-.12c3.54-2.49,3.15-2.76,3.32-3.1a8.44,8.44,0,0,1-1.1-.46,10,10,0,0,1-5.06,2.5,11.93,11.93,0,0,1-3.58-2.86,42.44,42.44,0,0,0,6.44-1.68,9.12,9.12,0,0,1-.4-.83l-6.92,1.32a12,12,0,0,1-1.44-3.34,20.1,20.1,0,0,1-.49-2.62A9.47,9.47,0,0,0,77.31,88.9Z" fill="#00a25f"/>
            <g>
                <g>
                    <path d="M111.41,97.72a1.15,1.15,0,0,1,0,.19.62.62,0,0,1-.47.54,3.22,3.22,0,0,1,1.79-.14,1.2,1.2,0,0,1,.9,1.12c-.07,1.07-1.38.91-2,.63a5,5,0,0,1,1.68.64.9.9,0,0,1,.32.82c-.19,1-2.12.57-2.49-.08.2.35.6.51.74,1a.94.94,0,0,1-.14.9c-.36.42-.91.19-1.24-.13-.74-.72-1.65-1.19-2.38-1.91A3.94,3.94,0,0,1,107,99.57a2.33,2.33,0,0,1,.26-1.93c.63-.91,1.65-.74,2.61-.75a2,2,0,0,1,1,.18A1,1,0,0,1,111.41,97.72Z" fill="#7a7a72"/>
                    <path d="M94,96.36a4.73,4.73,0,0,1-1.28-2.91,4.83,4.83,0,0,1,1.7-3.88,5.59,5.59,0,0,1,2.16-1.19,7.62,7.62,0,0,1,2.33-.21,8.23,8.23,0,0,1,4.84,1.69l.13.1a13.49,13.49,0,0,1,4.1,6.54,8.18,8.18,0,0,1-.09,3.65,2.15,2.15,0,0,1-.24.7,1.62,1.62,0,0,1-1.43.45,25.58,25.58,0,0,1-5-1.06,18.07,18.07,0,0,1-5.54-2.33,16.4,16.4,0,0,1-1.39-1.24A3.11,3.11,0,0,1,94,96.36Z" fill="#b5b2a6"/>
                </g>
                <path d="M93.25,85.05a6.05,6.05,0,0,0,.94.3,19.74,19.74,0,0,0,10.34-.48,39.09,39.09,0,0,0,4.91-1.82,29.09,29.09,0,0,0,5-3.12,2.2,2.2,0,0,0,.87-1,3.69,3.69,0,0,0-.24-2c-.27-.95-.63-2.24-1.58-2.69a5.4,5.4,0,0,0-2.54.55A14.78,14.78,0,0,1,107.41,76a16.84,16.84,0,0,1-2.93.05c-3.53.12-7.27.74-9.93,3.24a7.47,7.47,0,0,0-2.4,3.66,1.94,1.94,0,0,0,.2,1.36A2,2,0,0,0,93.25,85.05Z" fill="#b5b2a6"/>
                <path d="M82.88,48.93S77.6,37.4,66.31,44.21l3.3,2.23a7.16,7.16,0,0,0-5.44,2.1L67,50.93a3.94,3.94,0,0,0-2.82,5A3.73,3.73,0,0,0,69,59l0,3.12,4.49-.5Z" fill="#acaa9d"/>
                <path d="M80.66,48.58s-3.27-7.15-10.27-2.93l2,1.38a4.45,4.45,0,0,0-3.37,1.31l1.77,1.47a2.45,2.45,0,0,0-1.75,3.13,2.31,2.31,0,0,0,3,1.9l0,1.93,2.79-.31Z" fill="#f6d1c4"/>
                <path d="M103.59,46.72s2.73-12.38,15.21-8.1L116,41.49a7.15,7.15,0,0,1,5.76.91l-2.28,2.93a3.94,3.94,0,0,1,3.82,4.33,3.74,3.74,0,0,1-4.06,4l.69,3-4.5.47Z" fill="#acaa9d"/>
                <path d="M105.15,46.17s1.8-8.18,10-5.36l-1.82,1.9a4.69,4.69,0,0,1,3.8.6l-1.51,1.94a2.61,2.61,0,0,1,2.53,2.86,2.47,2.47,0,0,1-2.69,2.64l.46,2-3,.31Z" fill="#f6d1c4"/>
                <path d="M85.85,79.56c.56-.36,1.39.14,2,.26s1.06.19,1.6.27a37.91,37.91,0,0,0,4,.36,36,36,0,0,0,4.41-.09c1.4-.12,2.8-.46,4.2-.48a13.06,13.06,0,0,1,5.06.9c2.51,1,4.83,2.57,5.89,5.13a11.6,11.6,0,0,1-.6,9.45,9,9,0,0,1-1.2,1.9c-2.24,2.68-5.6,3.24-8.93,3.21a16.8,16.8,0,0,1-9.87-3c-5.32-3.78-9.19-10.41-7.08-17a1.94,1.94,0,0,1,.43-.83Z" fill="#d1cfc0"/>
                <g clip-path="url(#a)">
                    <path d="M118.92,62.25c1.63,9.59-8.11,16.18-21.13,18.4s-24.4-.78-26-10.37S78.35,45.18,91.37,43,117.28,52.66,118.92,62.25Z" fill="#d1cfc0"/>
                    <path d="M104.17,44.45a4,4,0,0,0-.4-.19c-.77-.35-1.53-.65-2.3-1a34.32,34.32,0,0,0-5.56-1.15c-7.82-.67-14,4.7-14,4.7a10.72,10.72,0,0,1,1.25,1.06l1.42,1.61c2.82,3.2,5.44,6.36,7.05,10.42.55,1.38,1.21,3,2.62,3.35a2.49,2.49,0,0,0,2.93-1.84A40.51,40.51,0,0,0,98,56.91a13.74,13.74,0,0,1,1.25-3.81,48.74,48.74,0,0,1,4.2-7.19l.47-.7A2.11,2.11,0,0,0,104.17,44.45Z" fill="#bebcaf"/>
                </g>
                <g>
                    <path d="M109.45,60.53a3.79,3.79,0,1,1-4-3.61A3.79,3.79,0,0,1,109.45,60.53Z" fill="#fff"/>
                    <path d="M108.17,60.59a2.51,2.51,0,1,1-2.63-2.38A2.51,2.51,0,0,1,108.17,60.59Z" fill="#453434"/>
                    <path d="M107.52,62.28a1.07,1.07,0,0,1-1,1.11,1.06,1.06,0,1,1,1-1.11Z" fill="#fff"/>
                    <path d="M105.53,59.92a.55.55,0,1,1-.57-.52A.55.55,0,0,1,105.53,59.92Z" fill="#fff"/>
                </g>
                <ellipse cx="106.35" cy="66.81" rx="3.65" ry="1.75" transform="translate(-9.42 18.13) rotate(-9.33)" fill="#fbdace"/>
                <g>
                    <path d="M87.19,64.19a3.79,3.79,0,1,1-4-3.61A3.79,3.79,0,0,1,87.19,64.19Z" fill="#fff"/>
                    <path d="M85.9,64.25a2.5,2.5,0,1,1-2.62-2.38A2.51,2.51,0,0,1,85.9,64.25Z" fill="#453434"/>
                    <path d="M85.26,65.93a1.08,1.08,0,0,1-1,1.12,1.06,1.06,0,0,1-1.11-1,1,1,0,0,1,1-1.11A1.06,1.06,0,0,1,85.26,65.93Z" fill="#fff"/>
                    <path d="M83.26,63.58a.54.54,0,0,1-.51.57.55.55,0,0,1-.57-.52.54.54,0,1,1,1.08-.05Z" fill="#fff"/>
                </g>
                <ellipse cx="84.09" cy="70.46" rx="3.65" ry="1.75" transform="matrix(0.99, -0.16, 0.16, 0.99, -10.31, 14.57)" fill="#fbdace"/>
                <g>
                    <path d="M103,71a3.72,3.72,0,1,1-4.32-3.08A3.76,3.76,0,0,1,103,71Z" fill="#fff"/>
                    <path d="M96.58,72A3.72,3.72,0,1,1,92.26,69,3.75,3.75,0,0,1,96.58,72Z" fill="#fff"/>
                    <circle cx="96.22" cy="74.37" r="4.31" fill="#fff"/>
                    <path d="M93.89,55.3c-3.27.45-4.25,5.05-4.66,10.56-.52,6.87,3.6,9,6.87,8.5s6.52-2.78,4.63-9.76C99.2,58.92,97.16,54.85,93.89,55.3Z" fill="#7a7a72"/>
                    <path d="M95.46,67.52c-3.27.45-5.85,3.25-4.84,4.62a5.72,5.72,0,0,0,5.48,2.22,5.5,5.5,0,0,0,4.84-3.65C101.42,69.24,98.73,67.07,95.46,67.52Z" fill="#453434"/>
                    <path d="M91.86,71.24c.79-1.4,3.85.8,4.23,1.08.27-.39,2.47-3.45,3.66-2.37s-1,3-2.94,3.62c0,0,.27.9-.35,1s-.65-.84-.65-.84C93.76,73.77,91,72.73,91.86,71.24Z" fill="#f8beae"/>
                </g>
                <g>
                    <path d="M101.87,99.5a.59.59,0,0,1,0,.19.64.64,0,0,1-.47.55,3.27,3.27,0,0,1,1.8-.15,1.2,1.2,0,0,1,.89,1.12c-.06,1.08-1.38.91-2,.64a4.67,4.67,0,0,1,1.68.63,1,1,0,0,1,.33.83c-.2,1-2.12.56-2.5-.09.21.35.6.51.74,1a1,1,0,0,1-.13.9c-.36.43-.92.19-1.25-.13-.73-.71-1.64-1.19-2.38-1.91a3.77,3.77,0,0,1-1.06-1.68,2.34,2.34,0,0,1,.26-1.93c.62-.91,1.65-.74,2.6-.75a2.08,2.08,0,0,1,1,.18A1,1,0,0,1,101.87,99.5Z" fill="#7a7a72"/>
                    <path d="M84.42,98.15a4.75,4.75,0,0,1-1.28-2.92,4.84,4.84,0,0,1,1.71-3.88A5.72,5.72,0,0,1,87,90.16a7.58,7.58,0,0,1,2.32-.2,8.2,8.2,0,0,1,4.85,1.69l.12.09A11.73,11.73,0,0,1,97,95a11.42,11.42,0,0,1,1.4,3.27,8.34,8.34,0,0,1-.1,3.65,1.73,1.73,0,0,1-.24.69,1.61,1.61,0,0,1-1.43.45,26.32,26.32,0,0,1-5-1,18.1,18.1,0,0,1-5.54-2.34,18.21,18.21,0,0,1-1.39-1.23C84.63,98.36,84.52,98.26,84.42,98.15Z" fill="#b5b2a6"/>
                </g>
                <path d="M113.5,74.17a4.23,4.23,0,0,1,1.1-2.06,1.35,1.35,0,0,1,.93-.48,1.07,1.07,0,0,1,.89.88,2.67,2.67,0,0,1-.16,1.53,1.67,1.67,0,0,1,1.52-1,1.1,1.1,0,0,1,.91,1,1.69,1.69,0,0,1-.36,1.12c-.22.29-.59.46-.79.75.21.07.47,0,.71,0a1.24,1.24,0,0,1,.68.39,1.2,1.2,0,0,1,.14,1.35,1.44,1.44,0,0,1-1.49.6,1.45,1.45,0,0,1,.81.63,1,1,0,0,1,0,1,1.08,1.08,0,0,1-.79.39,2.07,2.07,0,0,1-.88-.18,5.93,5.93,0,0,1-3.12-3.74A4.67,4.67,0,0,1,113.5,74.17Z" fill="#7a7a72"/>
            </g>
            <path d="M114.14,89.91l.27-1.18L122,86.41c.3-1.87.58-3.8.84-5.69l-7.11,2.21.45-1.36L123,79.38c.33-2.38.62-4.67.85-6.67l-5.61,2.42.27-1.36L124,71c.26-2.27.43-4,.46-4.89,0-.33,0-.67,0-1l-5.73,4.39.37-1.63,5.26-5.13c-.31-4.45-1.26-9.6-1.54-8.74s-2.46.9-6,7.06l1.48,5.63-.72,1.82-1.88-5.37c-.76,1.47-1.56,3.2-2.41,5.24L116.77,73l-.45,1.36L112.63,70c-.22.56-.44,1.14-.67,1.74q-.87,2.34-1.5,4.51l4.13,4.29-.45,1.54L110,78a52.06,52.06,0,0,0-1.24,6.61l3,3.15-.27,1.54-3-2.28c-.51,7.81,1.26,12.34,1.26,12.34-.55,3.09,7.25,2.18,9.06.73.76-.6,1.82-5.76,2.82-11.92Z" fill="#84bd3d"/>
            <g>
                <path d="M87.18,83.45a5.1,5.1,0,0,0,.45.87,19.66,19.66,0,0,0,7.68,7,37.79,37.79,0,0,0,4.76,2.17,28.7,28.7,0,0,0,5.78,1.34,2.3,2.3,0,0,0,1.35-.11,3.78,3.78,0,0,0,1.27-1.62c.48-.87,1.13-2,.78-3a5.68,5.68,0,0,0-2.2-1.4A14.23,14.23,0,0,1,103.61,87a17.64,17.64,0,0,1-2.12-2c-2.59-2.4-5.68-4.6-9.33-4.71a7.56,7.56,0,0,0-4.28.91,1.94,1.94,0,0,0-.82,1.11A2,2,0,0,0,87.18,83.45Z" fill="#b5b2a6"/>
                <path d="M109.21,90a4.19,4.19,0,0,1,2.23-.69,1.28,1.28,0,0,1,1,.31,1,1,0,0,1,0,1.25,2.62,2.62,0,0,1-1.2,1,1.69,1.69,0,0,1,1.77.38,1.1,1.1,0,0,1-.07,1.36,1.73,1.73,0,0,1-1,.54c-.36,0-.75-.09-1.09,0,.1.2.36.32.49.51a1.3,1.3,0,0,1,.2.76,1.21,1.21,0,0,1-.85,1.07,1.42,1.42,0,0,1-1.47-.64,1.51,1.51,0,0,1,.12,1,1,1,0,0,1-.77.72,1,1,0,0,1-.83-.28,2,2,0,0,1-.49-.75,5.9,5.9,0,0,1,.42-4.85A4.63,4.63,0,0,1,109.21,90Z" fill="#7a7a72"/>
            </g>
        </g>
        <path d="M133.21,9.05h-30.5v117.3h30.5a14.94,14.94,0,0,0,14.89-14.9V24A14.94,14.94,0,0,0,133.21,9.05Z" fill="#fff" opacity="0.13"/>
    </g>
</svg>
